# 3ds Max Wavefront OBJ Exporter v0.97b - (c)2007 guruware
# File Created: 23.03.2013 18:15:55

mtllib box_23.mtl

#
# object Box001
#

v  -94.8718 -81.5782 50.7441
v  -92.7591 -81.5782 50.7441
v  -92.7591 -81.5782 53.5613
v  -94.8718 -81.5782 53.5613
v  -92.7591 68.0092 53.5613
v  -92.7591 68.0092 50.7441
v  -94.8718 68.0092 50.7441
v  -94.8718 68.0092 53.5613
v  -92.7591 0.0000 53.5613
v  -92.7591 30.1994 53.5613
v  -94.8718 30.1994 53.5613
v  -94.8718 0.0000 53.5613
v  94.8718 0.0000 50.7441
v  94.8718 30.1994 50.7441
v  94.8718 30.1994 53.5613
v  94.8718 0.0000 53.5613
v  58.6172 0.0000 -53.5613
v  58.6172 30.1994 -53.5613
v  94.8718 30.1994 -53.5613
v  94.8718 0.0000 -53.5613
v  -94.8718 0.0000 -50.6717
v  -94.8718 30.1994 -50.6717
v  -94.8718 30.1994 -53.5613
v  -94.8718 0.0000 -53.5613
v  -3.3155 -81.5782 -53.5613
v  -3.3155 -81.5782 -50.6717
v  -64.9690 -81.5782 -50.6717
v  -64.9690 -81.5782 -53.5613
v  -3.3155 30.1994 53.5613
v  -3.3155 30.1994 50.7441
v  -64.9690 30.1994 50.7441
v  -64.9690 30.1994 53.5613
v  -3.3155 0.0000 53.5613
v  -64.9690 0.0000 53.5613
v  -92.7591 0.0000 -53.5613
v  -92.7591 30.1994 -53.5613
v  -64.9690 30.1994 -53.5613
v  -64.9690 0.0000 -53.5613
v  -3.3155 30.1994 -53.5613
v  -3.3155 0.0000 -53.5613
v  58.6172 -81.5782 -53.5613
v  58.6172 -81.5782 -50.6717
v  58.6172 30.1994 53.5613
v  58.6172 30.1994 50.7441
v  58.6172 0.0000 53.5613
v  -64.9690 0.0000 -50.6717
v  -64.9690 0.0000 -13.5483
v  -94.8718 0.0000 -13.5483
v  -64.9690 30.1994 -50.6717
v  -92.7591 30.1994 -50.6717
v  -92.7591 30.1994 -13.5483
v  -64.9690 30.1994 -13.5483
v  94.8718 0.0000 -50.6717
v  94.8718 30.1994 -50.6717
v  94.8718 30.1994 -13.5483
v  94.8718 0.0000 -13.5483
v  -94.8718 0.0000 50.7441
v  -94.8718 30.1994 50.7441
v  -94.8718 30.1994 -13.5483
v  -3.3155 0.0000 50.7441
v  -64.9690 0.0000 50.7441
v  -3.3155 0.0000 -13.5483
v  -3.3155 30.1994 -50.6717
v  -3.3155 30.1994 -13.5483
v  58.6172 0.0000 50.7441
v  58.6172 0.0000 -13.5483
v  58.6172 30.1994 -50.6717
v  58.6172 30.1994 -13.5483
v  94.8718 -81.5782 -53.5613
v  94.8718 -81.5782 -50.6717
v  94.8718 68.0092 53.5613
v  94.8718 68.0092 50.7441
v  58.6172 68.0092 50.7441
v  58.6172 68.0092 53.5613
v  -3.3155 -81.5782 53.5613
v  -3.3155 -81.5782 50.7441
v  58.6172 -81.5782 50.7441
v  58.6172 -81.5782 53.5613
v  -3.3155 68.0092 -53.5613
v  -3.3155 68.0092 -50.6717
v  58.6172 68.0092 -50.6717
v  58.6172 68.0092 -53.5613
v  58.6172 68.0092 -13.5483
v  -3.3155 68.0092 -13.5483
v  -64.9690 68.0092 50.7441
v  -64.9690 68.0092 53.5613
v  -92.7591 68.0092 -13.5483
v  -64.9690 68.0092 -13.5483
v  -94.8718 68.0092 -13.5483
v  94.8718 68.0092 -13.5483
v  -3.3155 0.0000 -50.6717
v  58.6172 0.0000 -50.6717
v  -94.8718 -81.5782 -53.5613
v  -92.7591 -81.5782 -53.5613
v  -92.7591 -81.5782 -50.6717
v  -94.8718 -81.5782 -50.6717
v  -64.9690 -81.5782 53.5613
v  -64.9690 -81.5782 50.7441
v  94.8718 -81.5782 53.5613
v  94.8718 -81.5782 50.7441
v  -94.8718 -78.7513 50.7441
v  -94.8718 -78.7513 53.5613
v  -64.9690 -78.7513 50.7441
v  -3.3155 -78.7513 50.7441
v  58.6172 -78.7513 50.7441
v  94.8718 -78.7513 50.7441
v  94.8718 -78.7513 53.5613
v  58.6172 -78.7513 53.5613
v  -3.3155 -78.7513 53.5613
v  -64.9690 -78.7513 53.5613
v  -92.7591 -78.7513 53.5613
v  -92.7591 -78.5978 -53.5613
v  -94.8718 -78.5978 -53.5613
v  -3.3155 -78.5978 -53.5613
v  -64.9690 -78.5978 -53.5613
v  58.6172 -78.5978 -53.5613
v  94.8718 -78.5978 -53.5613
v  94.8718 -78.5978 -50.6717
v  58.6172 -78.5978 -50.6717
v  -3.3155 -78.5978 -50.6717
v  -64.9690 -78.5978 -50.6717
v  -94.8718 -78.5978 -50.6717
# 122 vertices

vn 0.0000 -1.0000 -0.0000
vn 0.0000 1.0000 -0.0000
vn -0.0000 0.0000 1.0000
vn 0.0000 0.0000 1.0000
vn 1.0000 0.0000 -0.0000
vn 0.0000 0.0000 -1.0000
vn -1.0000 0.0000 -0.0000
vn -0.0000 1.0000 -0.0000
vn -0.0000 1.0000 0.0000
vn 0.0000 -0.0000 1.0000
vn -0.0000 0.0000 -1.0000
vn 0.0000 -0.0000 -1.0000
vn -1.0000 0.0000 0.0000
vn 0.0000 1.0000 0.0015
vn -0.0000 1.0000 0.0015
# 15 vertex normals

vt 1.0000 0.0263 0.0000
vt 0.9889 0.0263 0.0000
vt 0.9889 0.0000 0.0000
vt 1.0000 0.0000 0.0000
vt 0.0111 0.0000 0.0000
vt 0.0111 0.0263 0.0000
vt 0.0000 0.0263 0.0000
vt 0.0000 0.0000 0.0000
vt 0.0111 1.0000 0.0000
vt 0.0000 1.0000 0.0000
vt 0.0263 0.0000 0.0000
vt 0.0263 1.0000 0.0000
vt 0.1911 0.0000 0.0000
vt 0.1911 1.0000 0.0000
vt 0.0270 0.0000 0.0000
vt 0.0270 1.0000 0.0000
vt 0.5175 1.0000 0.0000
vt 0.5175 0.9730 0.0000
vt 0.8424 0.9730 0.0000
vt 0.8424 1.0000 0.0000
vt 0.4825 0.0000 0.0000
vt 0.4825 0.0263 0.0000
vt 0.1576 0.0263 0.0000
vt 0.1576 0.0000 0.0000
vt 0.4825 1.0000 0.0000
vt 0.1576 1.0000 0.0000
vt 0.9889 1.0000 0.0000
vt 0.8424 0.0000 0.0000
vt 0.5175 0.0000 0.0000
vt 0.1911 0.9730 0.0000
vt 0.8089 0.0000 0.0000
vt 0.8089 0.0263 0.0000
vt 0.8089 1.0000 0.0000
vt 1.0000 0.9730 0.0000
vt 0.8424 0.6265 0.0000
vt 1.0000 0.6265 0.0000
vt 0.1576 0.9730 0.0000
vt 0.0111 0.9730 0.0000
vt 0.0111 0.6265 0.0000
vt 0.1576 0.6265 0.0000
vt 0.9730 0.0000 0.0000
vt 0.9730 1.0000 0.0000
vt 0.6265 1.0000 0.0000
vt 0.6265 0.0000 0.0000
vt 0.9737 0.0000 0.0000
vt 0.9737 1.0000 0.0000
vt 0.3735 1.0000 0.0000
vt 0.3735 0.0000 0.0000
vt 0.5175 0.0263 0.0000
vt 0.8424 0.0263 0.0000
vt 0.5175 0.6265 0.0000
vt 0.4825 0.9730 0.0000
vt 0.4825 0.6265 0.0000
vt 0.1911 0.0263 0.0000
vt 0.1911 0.6265 0.0000
vt 0.0000 0.6265 0.0000
vt 0.8089 0.9730 0.0000
vt 0.8089 0.6265 0.0000
vt 0.0000 0.9730 0.0000
vt 1.0000 1.0000 0.0000
vt 0.9889 0.9730 0.0000
vt 0.9991 0.0254 0.0000
vt 0.0009 0.0254 0.0000
vt 0.2125 0.0000 0.0000
vt 0.0347 0.0000 0.0000
vt 0.5163 0.0000 0.0000
vt 0.8187 0.0000 0.0000
vt 0.9550 0.0000 0.0000
vt 0.9889 0.9635 0.0000
vt 1.0000 0.9635 0.0000
vt 0.5175 0.9635 0.0000
vt 0.8424 0.9635 0.0000
vt 0.1911 0.9635 0.0000
vt 0.0000 0.9635 0.0000
vt 0.0355 0.9375 0.0000
vt 0.0365 0.9635 0.0000
vt 0.9635 0.9635 0.0000
vt 0.9645 0.9375 0.0000
vt 0.9653 0.0000 0.0000
# 79 texture coords

g Box001
usemtl wire_153228214
s 2
f 1/1/1 2/2/1 3/3/1 4/4/1 
s 4
f 5/5/2 6/6/2 7/7/2 8/8/2 
s 8
f 9/5/3 10/9/3 11/10/4 12/8/4 
s 16
f 13/11/5 14/12/5 15/10/5 16/8/5 
s 32
f 17/13/6 18/14/6 19/10/6 20/8/6 
s 64
f 21/15/7 22/16/7 23/10/7 24/8/7 
s 2
f 25/17/1 26/18/1 27/19/1 28/20/1 
s 4
f 29/21/8 30/22/2 31/23/9 32/24/8 
s 8
f 33/21/10 29/25/10 32/26/3 34/24/3 
s 32
f 35/3/11 36/27/11 37/20/11 38/28/11 
f 38/28/11 37/20/11 39/17/6 40/29/6 
s 2
f 41/14/1 42/30/1 26/18/1 25/17/1 
s 4
f 43/31/2 44/32/2 30/22/2 29/21/8 
s 8
f 45/31/10 43/33/4 29/25/10 33/21/10 
s 2
f 21/34/1 46/19/1 47/35/1 48/36/1 
s 4
f 49/37/8 50/38/2 51/39/2 52/40/9 
s 16
f 53/41/5 54/42/5 55/43/5 56/44/5 
s 64
f 57/45/7 58/46/7 59/47/7 48/48/7 
s 2
f 60/49/1 61/50/1 47/35/1 62/51/1 
s 4
f 63/52/8 49/37/8 52/40/9 64/53/8 
s 2
f 13/7/1 65/54/1 66/55/1 56/56/1 
s 4
f 54/34/8 67/57/8 68/58/8 55/36/8 
s 32
f 40/29/6 39/17/6 18/14/6 17/13/6 
s 2
f 69/10/1 70/59/1 42/30/1 41/14/1 
s 4
f 71/4/2 72/1/2 73/32/8 74/31/2 
s 8
f 16/4/4 15/60/4 43/33/4 45/31/10 
s 2
f 75/29/1 76/49/1 77/54/1 78/13/1 
s 4
f 79/25/2 80/52/2 81/57/2 82/33/2 
s off
f 63/52/7 80/52/7 79/25/7 39/25/7 
f 64/53/4 68/58/4 83/58/4 84/53/4 
f 67/57/5 81/57/5 83/58/5 68/58/5 
f 18/14/12 39/17/12 79/25/12 82/33/12 
f 10/9/4 5/5/4 8/8/4 11/10/4 
f 31/23/5 85/23/5 86/24/5 32/24/5 
f 51/39/6 87/39/6 88/40/6 52/40/6 
f 58/46/7 7/7/7 89/56/7 59/47/7 
f 14/12/5 72/1/5 71/4/5 15/10/5 
f 55/36/12 68/58/12 83/58/12 90/36/12 
f 44/32/7 73/32/7 83/58/7 68/58/7 
f 43/33/4 15/60/4 71/4/4 74/31/4 
s 64
f 48/48/7 59/47/7 22/16/7 21/15/7 
s 2
f 62/51/1 47/35/1 46/19/1 91/18/1 
f 66/55/1 62/51/1 91/18/1 92/30/1 
f 93/60/1 94/27/1 95/61/1 96/34/1 
s 4
f 37/26/2 36/9/2 50/38/2 49/37/8 
s 16
f 20/4/5 19/60/5 54/42/5 53/41/5 
s 4
f 39/25/8 37/26/2 49/37/8 63/52/8 
f 19/60/8 18/33/8 67/57/8 54/34/8 
s 2
f 56/56/1 66/55/1 92/30/1 53/59/1 
s 4
f 84/53/2 83/58/2 81/57/2 80/52/2 
s off
f 64/53/13 84/53/13 80/52/13 63/52/13 
f 18/33/5 82/33/5 81/57/5 67/57/5 
s 2
f 48/36/1 47/35/1 61/50/1 57/1/1 
s 4
f 88/40/2 87/39/2 6/6/2 85/23/2 
s 16
f 56/44/5 55/43/5 14/12/5 13/11/5 
s 4
f 64/53/8 52/40/9 31/23/9 30/22/2 
f 68/58/8 64/53/8 30/22/2 44/32/2 
s 64
f 12/4/7 11/60/7 58/46/7 57/45/7 
s 2
f 75/29/1 97/28/1 98/50/1 76/49/1 
f 99/8/1 78/13/1 77/54/1 100/7/1 
s 4
f 90/36/8 83/58/8 73/32/8 72/1/2 
s 2
f 62/51/1 66/55/1 65/54/1 60/49/1 
s off
f 52/40/5 88/40/5 85/23/5 31/23/5 
f 11/60/7 8/8/7 7/7/7 58/46/7 
f 55/43/5 90/36/5 72/1/5 14/12/5 
f 43/31/7 74/31/7 73/32/7 44/32/7 
f 57/45/7 101/62/7 102/4/7 12/4/7 
f 61/50/6 103/50/6 101/1/6 57/1/6 
f 60/49/6 104/49/6 103/50/6 61/50/6 
f 65/54/11 105/54/11 104/49/11 60/49/11 
f 13/7/6 106/7/6 105/54/6 65/54/6 
f 16/8/5 107/8/5 106/63/5 13/11/5 
f 45/31/4 108/64/4 107/65/4 16/4/4 
f 33/21/4 109/66/4 108/64/4 45/31/4 
f 34/24/4 110/67/4 109/66/4 33/21/4 
f 9/5/3 111/68/3 110/67/3 34/24/3 
f 35/3/6 112/69/6 113/70/6 24/4/6 
f 40/29/6 114/71/6 115/72/6 38/28/6 
f 17/13/6 116/73/6 114/71/6 40/29/6 
f 20/8/6 117/74/6 116/73/6 17/13/6 
f 53/41/5 118/75/5 117/76/5 20/4/5 
f 92/30/4 119/30/4 118/59/4 53/59/4 
f 91/18/3 120/18/3 119/30/3 92/30/3 
f 46/19/4 121/19/4 120/18/4 91/18/4 
f 21/34/4 122/34/4 121/19/4 46/19/4 
f 24/8/7 113/77/7 122/78/7 21/15/7 
f 28/20/11 94/27/11 112/69/11 115/72/11 
f 25/17/6 28/20/6 115/72/6 114/71/6 
f 41/14/6 25/17/6 114/71/6 116/73/6 
f 69/10/6 41/14/6 116/73/6 117/74/6 
f 70/59/5 69/10/5 117/76/5 118/75/5 
f 93/60/7 96/34/7 122/78/7 113/77/7 
f 1/1/7 4/4/7 102/4/7 101/62/7 
f 99/8/5 100/7/5 106/63/5 107/8/5 
f 78/13/4 99/8/4 107/65/4 108/64/4 
f 75/29/4 78/13/4 108/64/4 109/66/4 
f 97/28/4 75/29/4 109/66/4 110/67/4 
f 4/4/4 3/3/4 111/68/4 102/79/4 
s 1
f 70/59/5 118/75/5 106/63/5 100/7/5 
s 4
f 118/59/14 119/30/15 105/54/14 106/7/14 
f 119/30/15 120/18/15 104/49/14 105/54/14 
f 120/18/15 121/19/14 103/50/15 104/49/14 
f 121/19/14 122/34/14 101/1/15 103/50/15 
s 1
f 122/78/7 96/34/7 1/1/7 101/62/7 
s 4
f 95/61/1 2/2/1 1/1/1 96/34/1 
f 27/19/1 26/18/1 76/49/1 98/50/1 
f 26/18/1 42/30/1 77/54/1 76/49/1 
f 42/30/1 70/59/1 100/7/1 77/54/1 
s 2
f 98/50/1 97/28/1 3/3/1 2/2/1 
s 4
f 86/24/2 85/23/2 6/6/2 5/5/2 
s 8
f 34/24/3 32/26/3 10/9/3 9/5/3 
s 32
f 24/4/6 23/60/6 36/27/11 35/3/11 
s 4
f 22/59/2 59/56/2 51/39/2 50/38/2 
s off
f 32/26/3 86/24/3 5/5/3 10/9/3 
f 59/56/6 89/56/6 87/39/6 51/39/6 
s 2
f 28/20/1 27/19/1 95/61/1 94/27/1 
s 4
f 23/10/2 22/59/2 50/38/2 36/9/2 
f 89/56/2 7/7/2 6/6/2 87/39/2 
s off
f 12/8/4 102/79/4 111/68/4 9/5/4 
f 38/28/11 115/72/11 112/69/11 35/3/11 
f 93/60/6 113/70/6 112/69/6 94/27/6 
f 97/28/3 110/67/3 111/68/3 3/3/3 
s 4
f 27/19/1 98/50/1 2/2/1 95/61/1 
# 123 polygons

